<svg width="12" height="12" viewBox="0 0 12 12" fill="none" xmlns="http://www.w3.org/2000/svg">
<g opacity="0.2">
<path d="M6.00001 0.166668C2.78341 0.166668 0.166672 2.7834 0.166672 6C0.166672 9.2166 2.78341 11.8333 6.00001 11.8333C9.2166 11.8333 11.8333 9.2166 11.8333 6C11.8333 2.7834 9.2166 0.166668 6.00001 0.166668ZM5.75695 9.40278C5.35445 9.40278 5.02778 9.07611 5.02778 8.67361C5.02778 8.27111 5.35445 7.94445 5.75695 7.94445C6.15945 7.94445 6.48612 8.27111 6.48612 8.67361C6.48612 9.07611 6.15945 9.40278 5.75695 9.40278ZM7.85257 5.08952C7.70237 5.33014 7.41702 5.60042 6.99605 5.90083C6.31501 6.40445 6.33348 6.51625 6.33348 6.97222H5.1391C5.1391 6.6159 5.13132 6.34222 5.32382 6.00924C5.44681 5.79584 5.67237 5.56882 6.00001 5.32868C6.39327 5.04771 6.77535 4.77695 6.77535 4.30542C6.77535 3.86354 6.39716 3.70604 5.95528 3.70604C5.50466 3.70604 4.99084 3.85333 4.41383 4.14792L3.92237 3.16111C4.97091 2.5734 6.62563 2.3075 7.53028 3.04396C8.19431 3.585 8.1982 4.53632 7.85257 5.08952Z" fill="#1E1A3E"/>
</g>
</svg>
