<svg width="332" height="355" viewBox="0 0 332 355" fill="none" xmlns="http://www.w3.org/2000/svg">
<path d="M108.535 353.964C159.84 278.017 198.79 163.489 198.79 163.489C190.509 158.608 183.102 154.299 173.474 153.794C170.444 153.626 167.314 153.727 164.486 154.838C160.682 156.353 157.854 159.551 155.396 162.816C139.305 184.092 132.639 211.63 115.133 231.728C108.299 239.572 99.9842 246.069 93.5205 254.216C76.2505 275.896 73.6247 307.103 54.4358 327.1C46.9959 334.843 37.4351 340.498 30.9715 349.049C29.7932 350.598 28.716 352.247 27.807 353.964H108.535Z" fill="#E16162"/>
<path d="M259.69 170.929C266.658 181.13 276.556 189.411 288.002 194.596C288.911 195 289.887 195.404 290.897 195.404C292.917 195.404 294.499 193.821 295.711 192.273C298.034 189.344 299.953 186.146 301.703 182.88C313.89 160.359 318.906 134.235 315.943 108.986C315.809 107.842 315.64 106.63 315.977 105.519C316.213 104.644 316.718 103.836 317.223 103.061C319.31 99.7958 321.397 96.5303 323.484 93.2649C329.106 84.4784 325.403 73.672 328.298 63.7409C329.308 60.3071 330.958 56.9743 331.16 53.4058C331.227 52.3286 331.16 51.184 330.587 50.2414C330.015 49.2988 328.837 48.6591 327.76 48.9621C327.12 49.1304 326.615 49.6017 326.144 50.0394C319.411 56.3683 312.779 62.832 306.248 69.3966C302.982 66.4678 299.549 63.7409 295.913 61.2497C295.307 60.8121 294.634 60.3744 293.893 60.3408C292.513 60.2398 291.402 61.519 291.166 62.832C290.93 64.1449 291.334 65.4578 291.671 66.7371C294.398 77.2068 293.018 89.1578 299.549 97.9443C292.95 109.862 286.924 122.486 281.471 134.942C280.023 131.979 277.868 129.353 275.243 127.266C274.839 126.93 274.334 126.627 273.829 126.728C273.458 126.829 273.189 127.132 272.92 127.435C265.615 136.255 258.04 145.815 257.03 157.093C256.626 161.806 256.996 166.991 259.69 170.929Z" fill="#FCF6B7"/>
<path d="M286.049 120.466C281.605 133.326 278.845 146.792 278.912 160.359" stroke="#F3D3C5" stroke-width="1.68324" stroke-miterlimit="10"/>
<path d="M168.054 16.4083C145.23 27.8543 121.294 37.1458 96.7187 44.0807C83.7241 47.7502 70.0899 50.982 59.6202 59.4991C54.3012 63.8082 50.0594 69.2956 45.279 74.2106C32.7558 87.0705 16.6304 95.857 0 102.556C4.54474 116.796 13.6679 129.522 25.6862 138.409C27.3357 139.621 29.12 140.799 31.1399 140.968C32.6884 141.102 34.237 140.665 35.7182 140.16C45.178 137.029 54.2002 132.484 62.3134 126.728C53.5605 133.494 44.0334 139.285 34.035 143.998C39.0174 150.495 48.0395 152.952 56.119 151.673C64.1986 150.394 71.4365 145.95 77.7655 140.732C72.7831 145.31 67.3968 149.485 61.7074 153.188C68.2384 159.584 77.6308 162.143 86.7203 163.018C95.8097 163.893 105.034 163.321 114.056 164.701C120.149 165.61 126.175 167.395 132.336 167.428C141.156 167.496 149.673 163.994 157.181 159.382C180.376 145.142 195.289 120.971 214.511 101.681C223.029 93.1639 232.791 85.017 236.798 73.6383C240.534 63.1013 238.649 51.4533 236.158 40.5459C234.407 32.7357 232.152 24.6562 226.664 18.8322C219.561 11.2913 208.856 9.30507 198.992 8.19413C187.479 6.91487 178.187 11.2913 168.054 16.4083Z" fill="#389679"/>
<path d="M144.018 353.695C143.984 353.863 143.917 353.998 143.883 354.166H212.727C206.937 325.484 198.386 273.472 188.623 182.948C187.748 174.801 188.32 166.553 190.307 158.608L156.642 141.91C139.069 152.717 125.064 169.28 117.389 188.435C109.713 207.59 108.333 229.203 113.585 249.166C116.379 259.737 120.924 269.803 123.55 280.441C125.973 290.271 126.849 300.875 132.504 309.291C136.106 314.644 141.425 318.751 144.354 324.474C148.865 333.362 146.745 344.101 144.018 353.695Z" fill="#F58A6C"/>
<path d="M127.892 232.064C127.522 229.27 125.839 226.813 124.66 224.254C121.597 217.656 121.597 210.081 121.732 202.81C121.9 195.471 122.136 188.132 122.438 180.827C121.227 179.244 119.712 179.514 117.692 179.514C112.743 179.48 108.03 178.167 104.091 175.07C101.667 173.185 99.4455 170.997 96.6177 169.818C96.0117 182.342 95.8434 194.899 96.1464 207.455C96.18 208.836 96.2137 210.216 95.8434 211.529C95.0691 214.323 93.0492 216.41 92.9146 219.373C92.7799 222.066 93.0492 225.298 93.2849 228.025C93.8572 234.354 95.5404 240.514 97.089 246.641C97.695 249.031 98.8732 254.249 101.499 255.226C102.139 255.461 102.913 255.697 103.182 256.337C103.317 256.673 103.283 257.044 103.283 257.38C103.317 258.559 103.99 259.703 105 260.309C106.077 260.949 107.054 260.343 108.03 260.646C108.131 260.679 108.232 260.713 108.333 260.78C108.367 261.184 108.67 261.588 109.074 261.757C109.276 261.858 109.208 261.454 109.276 261.858C109.579 262.161 110.387 262.497 110.757 262.699C111.43 263.07 112.238 263.305 112.979 263.07C113.618 262.868 114.123 262.262 114.09 261.622C115.773 263.406 118.129 264.484 120.587 263.002C121.126 262.699 121.597 262.262 121.833 261.656C122.068 261.05 122.001 260.376 121.9 259.77C121.496 256.404 121.496 253.374 120.89 250.075C121.025 250.243 121.26 250.311 121.462 250.243C121.799 250.109 121.967 249.772 122.102 249.435C123.28 246.742 124.492 244.049 125.67 241.356C127.017 238.393 128.33 235.263 127.892 232.064ZM108.4 260.444V260.477H108.333C108.367 260.477 108.4 260.477 108.4 260.444Z" fill="#FCF6B7"/>
<path d="M191.047 33.409C190.879 37.9874 191.115 43.5757 194.986 45.9659C196.501 46.9085 209.159 47.0769 209.193 46.5719C208.822 49.9384 208.486 53.3048 208.115 56.6376C208.048 57.2773 207.981 57.9842 208.183 58.5902C208.553 59.6675 209.63 60.3071 210.674 60.7784C214.781 62.6636 220.1 64.2459 224.611 63.4379C223.601 57.8832 225.486 52.3622 226.227 46.9085C226.934 41.7242 228.213 36.4725 228.651 31.2544C229.021 26.878 227.91 21.9293 224.274 19.4381C220.504 16.8796 215.387 17.8222 211.01 16.543C205.759 15.0281 202.46 9.1704 197.006 7.9248C192.596 6.91486 193 11.2576 192.596 14.5231C191.956 19.8084 191.485 25.0938 191.182 30.4128C191.148 31.3218 191.081 32.3317 191.047 33.409Z" fill="#FCF6B7"/>
<path d="M193.202 7.01587C192.427 10.214 192.023 13.5805 192.865 16.7786C194.043 21.2897 197.645 24.8918 201.719 27.1137C205.792 29.3356 210.438 30.4128 214.983 31.4564C214.31 29.0999 215.791 26.3057 218.147 25.6661C220.504 25.0265 223.264 26.8107 223.567 29.2346C223.938 32.2644 221.009 34.6546 218.215 35.8329C217.71 36.0348 217.171 36.2705 216.868 36.7418C216.666 37.0111 216.599 37.3814 216.531 37.6844C215.925 40.7479 215.555 43.9124 216.801 46.8075C217.979 49.5344 220.571 50.8137 222.187 53.1365C224.005 55.7624 222.961 58.8932 223.971 61.721C224.611 63.4716 226.059 64.7845 227.506 65.9628C230.368 68.252 233.734 70.3728 237.403 70.2718C240.4 70.2045 241.713 69.5649 243.194 67.1074C244.507 64.9528 245.651 62.6973 246.661 60.3744C248.648 55.7287 249.96 50.8136 250.634 45.7976C251.947 35.6982 250.331 24.9592 244.574 16.543C237.875 6.74655 226.126 1.12454 214.31 0.148265C210.505 -0.154717 206.634 -0.0537209 202.965 1.02355C199.228 2.06716 194.077 3.31275 193.202 7.01587Z" fill="#389679"/>
<path d="M281.37 126.223L280.999 124.438C274.569 114.44 268.846 104.004 263.898 93.1975C260.901 86.7002 258.006 79.799 252.553 75.1869C249.455 72.561 245.719 70.8778 242.016 69.3292C238.211 67.7133 234.475 65.8618 230.603 64.3468C228.752 63.6399 226.631 62.7309 226.159 60.8121C225.722 59.0278 226.9 56.907 225.755 55.493C224.914 54.4494 223.332 54.5168 222.052 54.8871C218.585 55.8633 214.31 55.0554 211.01 53.4732C209.899 52.9345 208.486 52.2612 207.509 53.0355C206.567 53.7761 206.769 55.19 206.567 56.3683C206.163 58.4219 204.143 59.8694 202.056 60.2398C199.362 60.7111 196.568 59.8358 193.875 59.7684C190.812 59.7011 187.748 59.4655 184.685 59.2971C178.827 58.9942 172.902 58.7248 167.179 60.0378C162.365 61.1487 157.854 63.3706 153.545 65.8281C134.154 76.8701 117.826 93.1975 106.751 112.555C95.6751 131.912 89.9184 154.299 90.2551 176.585C97.8969 180.793 106.246 183.621 114.628 186.011C120.991 187.829 127.589 189.681 134.087 188.536C133.918 172.074 134.356 155.814 135.164 139.385C135.702 140.16 137.049 139.924 137.554 139.116C138.059 138.308 137.958 137.265 137.689 136.356C139.103 137.197 140.651 135.548 141.459 134.134C147.788 123.058 154.454 112.184 161.422 101.513C160.581 105.99 159.84 110.333 160.109 114.878C160.379 119.018 161.288 123.092 161.658 127.199C161.894 129.926 161.894 132.72 161.288 135.379C160.783 137.635 158.796 140.092 159.402 142.415C159.773 143.762 160.648 144.873 161.591 145.883C168.458 153.188 178.659 156.117 188.388 158.473C191.586 159.248 194.649 159.315 197.78 159.618C199.127 159.753 200.473 158.978 201.349 157.935C203.705 155.174 205.658 151.841 207.711 148.845C208.957 147.027 210.202 145.209 211.886 143.829C213.603 142.449 215.69 141.607 217.676 140.732C224.847 137.5 231.478 133.057 237.235 127.704C239.087 125.953 240.938 124.001 241.578 121.51C240.097 129.353 243.093 137.231 244.439 145.075C245.315 150.192 245.517 155.444 246.762 160.493C248.109 165.981 250.263 174.195 255.01 177.662C255.414 177.965 255.852 178.235 256.357 178.201C256.794 178.167 257.131 177.864 257.468 177.595C264.369 171.603 269.553 162.311 273.862 154.366C278.003 146.893 283.289 135.009 281.37 126.223Z" fill="#F3D3C5"/>
<path d="M312.543 99.8295L291.065 93.9718C289.449 93.5342 288.506 91.8846 288.944 90.2687L301.871 42.8014C302.309 41.1855 303.959 40.2429 305.574 40.6806L327.053 46.5382C328.668 46.9759 329.611 48.6254 329.173 50.2413L316.246 97.7086C315.809 99.3245 314.159 100.267 312.543 99.8295Z" fill="#38598B"/>
<path d="M153.545 143.93C154.656 146.859 159.032 150.63 161.557 152.212C168.391 156.453 175.898 159.618 183.708 161.503C187.681 162.479 191.72 163.119 195.828 163.388C197.746 163.523 198.79 163.456 198.79 163.456C198.79 163.456 200.069 159.584 200.339 156.521C193.875 156.285 188.421 154.568 182.395 152.346C174.08 149.283 167.044 144.469 160.109 138.982L153.545 143.93Z" fill="#E16162"/>
<path d="M206.903 125.347C204.412 125.347 202.359 123.294 202.359 120.803C202.359 118.311 204.412 116.258 206.903 116.258C209.394 116.258 211.448 118.311 211.448 120.803C211.448 123.294 209.394 125.347 206.903 125.347Z" fill="#F3D3C5"/>
<path d="M206.903 117.066C208.957 117.066 210.606 118.715 210.606 120.769C210.606 122.822 208.957 124.472 206.903 124.472C204.85 124.472 203.2 122.822 203.2 120.769C203.2 118.715 204.85 117.066 206.903 117.066ZM206.903 115.383C203.941 115.383 201.517 117.806 201.517 120.769C201.517 123.731 203.941 126.155 206.903 126.155C209.866 126.155 212.29 123.731 212.29 120.769C212.29 117.806 209.866 115.383 206.903 115.383Z" fill="#FCF0E2"/>
<path d="M184.651 145.344C182.16 145.344 180.106 143.291 180.106 140.799C180.106 138.308 182.16 136.255 184.651 136.255C187.142 136.255 189.196 138.308 189.196 140.799C189.196 143.291 187.142 145.344 184.651 145.344Z" fill="#F3D3C5"/>
<path d="M184.651 137.096C186.704 137.096 188.354 138.746 188.354 140.799C188.354 142.853 186.704 144.502 184.651 144.502C182.597 144.502 180.948 142.853 180.948 140.799C180.948 138.746 182.597 137.096 184.651 137.096ZM184.651 135.413C181.688 135.413 179.265 137.837 179.265 140.799C179.265 143.762 181.688 146.186 184.651 146.186C187.613 146.186 190.037 143.762 190.037 140.799C190.037 137.803 187.613 135.413 184.651 135.413Z" fill="#FCF0E2"/>
<path d="M161.254 129.589C158.763 129.589 156.709 127.535 156.709 125.044C156.709 122.553 158.763 120.5 161.254 120.5C163.745 120.5 165.799 122.553 165.799 125.044C165.799 127.535 163.779 129.589 161.254 129.589Z" fill="#F3D3C5"/>
<path d="M161.254 121.341C163.308 121.341 164.957 122.991 164.957 125.044C164.957 127.098 163.308 128.747 161.254 128.747C159.2 128.747 157.551 127.098 157.551 125.044C157.551 122.991 159.234 121.341 161.254 121.341ZM161.254 119.658C158.291 119.658 155.868 122.082 155.868 125.044C155.868 128.007 158.291 130.431 161.254 130.431C164.216 130.431 166.64 128.007 166.64 125.044C166.64 122.082 164.25 119.658 161.254 119.658Z" fill="#FCF0E2"/>
<path d="M175.09 108.885C172.599 108.885 170.545 106.832 170.545 104.341C170.545 101.849 172.599 99.7958 175.09 99.7958C177.581 99.7958 179.635 101.849 179.635 104.341C179.635 106.832 177.615 108.885 175.09 108.885Z" fill="#F3D3C5"/>
<path d="M175.09 100.637C177.144 100.637 178.793 102.287 178.793 104.341C178.793 106.394 177.144 108.044 175.09 108.044C173.037 108.044 171.387 106.394 171.387 104.341C171.387 102.287 173.07 100.637 175.09 100.637ZM175.09 98.9542C172.128 98.9542 169.704 101.378 169.704 104.341C169.704 107.303 172.128 109.727 175.09 109.727C178.053 109.727 180.477 107.303 180.477 104.341C180.477 101.378 178.086 98.9542 175.09 98.9542Z" fill="#FCF0E2"/>
<path d="M140.887 97.6412C138.396 97.6412 136.342 95.5877 136.342 93.0965C136.342 90.6053 138.396 88.5518 140.887 88.5518C143.378 88.5518 145.432 90.6053 145.432 93.0965C145.432 95.5877 143.412 97.6412 140.887 97.6412Z" fill="#F3D3C5"/>
<path d="M140.887 89.3597C142.94 89.3597 144.59 91.0093 144.59 93.0628C144.59 95.1164 142.94 96.766 140.887 96.766C138.833 96.766 137.184 95.1164 137.184 93.0628C137.184 91.0093 138.833 89.3597 140.887 89.3597ZM140.887 87.6765C137.924 87.6765 135.5 90.1003 135.5 93.0628C135.5 96.0253 137.924 98.4492 140.887 98.4492C143.849 98.4492 146.273 96.0253 146.273 93.0628C146.273 90.1003 143.849 87.6765 140.887 87.6765Z" fill="#FCF0E2"/>
<path d="M111.801 112.959C109.309 112.959 107.256 110.905 107.256 108.414C107.256 105.923 109.309 103.869 111.801 103.869C114.292 103.869 116.345 105.923 116.345 108.414C116.345 110.905 114.325 112.959 111.801 112.959Z" fill="#F3D3C5"/>
<path d="M111.801 104.711C113.854 104.711 115.504 106.36 115.504 108.414C115.504 110.467 113.854 112.117 111.801 112.117C109.747 112.117 108.097 110.467 108.097 108.414C108.097 106.36 109.747 104.711 111.801 104.711ZM111.801 103.028C108.838 103.028 106.414 105.451 106.414 108.414C106.414 111.376 108.838 113.8 111.801 113.8C114.763 113.8 117.187 111.376 117.187 108.414C117.187 105.451 114.763 103.028 111.801 103.028Z" fill="#FCF0E2"/>
<path d="M121.698 148.812C119.207 148.812 117.153 146.758 117.153 144.267C117.153 141.776 119.207 139.722 121.698 139.722C124.189 139.722 126.243 141.776 126.243 144.267C126.243 146.758 124.223 148.812 121.698 148.812Z" fill="#F3D3C5"/>
<path d="M121.698 140.564C123.751 140.564 125.401 142.213 125.401 144.267C125.401 146.32 123.751 147.97 121.698 147.97C119.644 147.97 117.995 146.32 117.995 144.267C117.995 142.213 119.678 140.564 121.698 140.564ZM121.698 138.88C118.735 138.88 116.312 141.304 116.312 144.267C116.312 147.229 118.735 149.653 121.698 149.653C124.66 149.653 127.084 147.229 127.084 144.267C127.084 141.304 124.694 138.88 121.698 138.88Z" fill="#FCF0E2"/>
<path d="M94.4295 143.56C91.9383 143.56 89.8848 141.506 89.8848 139.015C89.8848 136.524 91.9383 134.47 94.4295 134.47C96.9207 134.47 98.9742 136.524 98.9742 139.015C98.9742 141.506 96.9207 143.56 94.4295 143.56Z" fill="#F3D3C5"/>
<path d="M94.4295 135.312C96.4831 135.312 98.1326 136.962 98.1326 139.015C98.1326 141.069 96.4831 142.718 94.4295 142.718C92.376 142.718 90.7264 141.069 90.7264 139.015C90.7264 136.995 92.376 135.312 94.4295 135.312ZM94.4295 133.629C91.467 133.629 89.0432 136.053 89.0432 139.015C89.0432 141.978 91.467 144.401 94.4295 144.401C97.392 144.401 99.8159 141.978 99.8159 139.015C99.8159 136.053 97.392 133.629 94.4295 133.629Z" fill="#FCF0E2"/>
<path d="M105.202 168.034C102.711 168.034 100.657 165.981 100.657 163.489C100.657 160.998 102.711 158.945 105.202 158.945C107.693 158.945 109.747 160.998 109.747 163.489C109.747 165.981 107.693 168.034 105.202 168.034Z" fill="#F3D3C5"/>
<path d="M105.202 159.753C107.256 159.753 108.905 161.402 108.905 163.456C108.905 165.509 107.256 167.159 105.202 167.159C103.149 167.159 101.499 165.509 101.499 163.456C101.499 161.436 103.149 159.753 105.202 159.753ZM105.202 158.069C102.24 158.069 99.8159 160.493 99.8159 163.456C99.8159 166.418 102.24 168.842 105.202 168.842C108.165 168.842 110.589 166.418 110.589 163.456C110.589 160.493 108.165 158.069 105.202 158.069Z" fill="#FCF0E2"/>
<path d="M118.264 190.085C115.773 190.085 113.719 188.031 113.719 185.54C113.719 183.049 115.773 180.995 118.264 180.995C120.755 180.995 122.809 183.049 122.809 185.54C122.843 188.031 120.789 190.085 118.264 190.085Z" fill="#F3D3C5"/>
<path d="M118.264 181.837C120.318 181.837 121.967 183.486 121.967 185.54C121.967 187.593 120.318 189.243 118.264 189.243C116.211 189.243 114.561 187.593 114.561 185.54C114.561 183.486 116.244 181.837 118.264 181.837ZM118.264 180.153C115.302 180.153 112.878 182.577 112.878 185.54C112.878 188.502 115.302 190.926 118.264 190.926C121.227 190.926 123.651 188.502 123.651 185.54C123.651 182.577 121.26 180.153 118.264 180.153Z" fill="#FCF0E2"/>
<path d="M134.356 173.421C131.865 173.421 129.811 171.367 129.811 168.876C129.811 166.385 131.865 164.331 134.356 164.331C136.847 164.331 138.901 166.385 138.901 168.876C138.901 171.367 136.881 173.421 134.356 173.421Z" fill="#F3D3C5"/>
<path d="M134.356 165.173C136.409 165.173 138.059 166.822 138.059 168.876C138.059 170.929 136.409 172.579 134.356 172.579C132.302 172.579 130.653 170.929 130.653 168.876C130.653 166.822 132.302 165.173 134.356 165.173ZM134.356 163.489C131.393 163.489 128.969 165.913 128.969 168.876C128.969 171.838 131.393 174.262 134.356 174.262C137.318 174.262 139.742 171.838 139.742 168.876C139.742 165.913 137.318 163.489 134.356 163.489Z" fill="#FCF0E2"/>
<path d="M127.993 126.492C125.502 126.492 123.448 124.438 123.448 121.947C123.448 119.456 125.502 117.402 127.993 117.402C130.484 117.402 132.538 119.456 132.538 121.947C132.538 124.438 130.484 126.492 127.993 126.492Z" fill="#F3D3C5"/>
<path d="M127.993 118.244C130.047 118.244 131.696 119.894 131.696 121.947C131.696 124.001 130.047 125.65 127.993 125.65C125.94 125.65 124.29 124.001 124.29 121.947C124.29 119.894 125.94 118.244 127.993 118.244ZM127.993 116.561C125.031 116.561 122.607 118.985 122.607 121.947C122.607 124.91 125.031 127.333 127.993 127.333C130.956 127.333 133.38 124.91 133.38 121.947C133.38 118.985 130.956 116.561 127.993 116.561Z" fill="#FCF0E2"/>
<path d="M214.377 145.344C211.886 145.344 209.832 143.291 209.832 140.799C209.832 138.308 211.886 136.255 214.377 136.255C216.868 136.255 218.922 138.308 218.922 140.799C218.922 143.291 216.868 145.344 214.377 145.344Z" fill="#F3D3C5"/>
<path d="M214.377 137.096C216.43 137.096 218.08 138.746 218.08 140.799C218.08 142.853 216.43 144.502 214.377 144.502C212.323 144.502 210.674 142.853 210.674 140.799C210.674 138.746 212.323 137.096 214.377 137.096ZM214.377 135.413C211.414 135.413 208.991 137.837 208.991 140.799C208.991 143.762 211.414 146.186 214.377 146.186C217.339 146.186 219.763 143.762 219.763 140.799C219.763 137.803 217.339 135.413 214.377 135.413Z" fill="#FCF0E2"/>
<path d="M244.305 137.265C241.814 137.265 239.76 135.211 239.76 132.72C239.76 130.229 241.814 128.175 244.305 128.175C246.796 128.175 248.85 130.229 248.85 132.72C248.85 135.211 246.796 137.265 244.305 137.265Z" fill="#F3D3C5"/>
<path d="M244.305 129.017C246.358 129.017 248.008 130.666 248.008 132.72C248.008 134.773 246.358 136.423 244.305 136.423C242.251 136.423 240.602 134.773 240.602 132.72C240.602 130.666 242.251 129.017 244.305 129.017ZM244.305 127.333C241.342 127.333 238.918 129.757 238.918 132.72C238.918 135.682 241.342 138.106 244.305 138.106C247.267 138.106 249.691 135.682 249.691 132.72C249.691 129.757 247.267 127.333 244.305 127.333Z" fill="#FCF0E2"/>
<path d="M263.83 146.489C261.339 146.489 259.286 144.435 259.286 141.944C259.286 139.453 261.339 137.399 263.83 137.399C266.321 137.399 268.375 139.453 268.375 141.944C268.375 144.435 266.321 146.489 263.83 146.489Z" fill="#F3D3C5"/>
<path d="M263.83 138.241C265.884 138.241 267.533 139.89 267.533 141.944C267.533 143.998 265.884 145.647 263.83 145.647C261.777 145.647 260.127 143.998 260.127 141.944C260.127 139.89 261.777 138.241 263.83 138.241ZM263.83 136.558C260.868 136.558 258.444 138.981 258.444 141.944C258.444 144.906 260.868 147.33 263.83 147.33C266.793 147.33 269.217 144.906 269.217 141.944C269.217 138.981 266.793 136.558 263.83 136.558Z" fill="#FCF0E2"/>
<path d="M251.509 170.593C249.018 170.593 246.964 168.539 246.964 166.048C246.964 163.557 249.018 161.503 251.509 161.503C254 161.503 256.054 163.557 256.054 166.048C256.054 168.539 254 170.593 251.509 170.593Z" fill="#F3D3C5"/>
<path d="M251.509 162.345C253.563 162.345 255.212 163.994 255.212 166.048C255.212 168.102 253.563 169.751 251.509 169.751C249.456 169.751 247.806 168.102 247.806 166.048C247.806 164.028 249.456 162.345 251.509 162.345ZM251.509 160.662C248.547 160.662 246.123 163.085 246.123 166.048C246.123 169.01 248.547 171.434 251.509 171.434C254.472 171.434 256.895 169.01 256.895 166.048C256.895 163.085 254.472 160.662 251.509 160.662Z" fill="#FCF0E2"/>
<path d="M279.35 143.56C276.859 143.56 274.805 141.506 274.805 139.015C274.805 136.524 276.859 134.47 279.35 134.47C281.841 134.47 283.894 136.524 283.894 139.015C283.894 141.506 281.875 143.56 279.35 143.56Z" fill="#F3D3C5"/>
<path d="M279.35 135.312C281.403 135.312 283.053 136.962 283.053 139.015C283.053 141.069 281.403 142.718 279.35 142.718C277.296 142.718 275.647 141.069 275.647 139.015C275.647 136.995 277.33 135.312 279.35 135.312ZM279.35 133.629C276.387 133.629 273.963 136.053 273.963 139.015C273.963 141.978 276.387 144.401 279.35 144.401C282.312 144.401 284.736 141.978 284.736 139.015C284.736 136.053 282.346 133.629 279.35 133.629Z" fill="#FCF0E2"/>
<path d="M269.217 112.959C266.725 112.959 264.672 110.905 264.672 108.414C264.672 105.923 266.725 103.869 269.217 103.869C271.708 103.869 273.761 105.923 273.761 108.414C273.761 110.905 271.708 112.959 269.217 112.959Z" fill="#F3D3C5"/>
<path d="M269.217 104.711C271.27 104.711 272.92 106.36 272.92 108.414C272.92 110.467 271.27 112.117 269.217 112.117C267.163 112.117 265.513 110.467 265.513 108.414C265.513 106.36 267.163 104.711 269.217 104.711ZM269.217 103.028C266.254 103.028 263.83 105.451 263.83 108.414C263.83 111.376 266.254 113.8 269.217 113.8C272.179 113.8 274.603 111.376 274.603 108.414C274.603 105.451 272.179 103.028 269.217 103.028Z" fill="#FCF0E2"/>
<path d="M259.286 89.9657C256.794 89.9657 254.741 87.9121 254.741 85.421C254.741 82.9298 256.794 80.8762 259.286 80.8762C261.777 80.8762 263.83 82.9298 263.83 85.421C263.83 87.9121 261.81 89.9657 259.286 89.9657Z" fill="#F3D3C5"/>
<path d="M259.286 81.7178C261.339 81.7178 262.989 83.3674 262.989 85.421C262.989 87.4745 261.339 89.1241 259.286 89.1241C257.232 89.1241 255.582 87.4745 255.582 85.421C255.582 83.3674 257.266 81.7178 259.286 81.7178ZM259.286 80.0346C256.323 80.0346 253.899 82.4585 253.899 85.421C253.899 88.3835 256.323 90.8073 259.286 90.8073C262.248 90.8073 264.672 88.3835 264.672 85.421C264.672 82.4585 262.282 80.0346 259.286 80.0346Z" fill="#FCF0E2"/>
<path d="M241.612 103.028C239.12 103.028 237.067 100.974 237.067 98.4828C237.067 95.9917 239.12 93.9381 241.612 93.9381C244.103 93.9381 246.156 95.9917 246.156 98.4828C246.156 100.974 244.136 103.028 241.612 103.028Z" fill="#F3D3C5"/>
<path d="M241.612 94.7797C243.665 94.7797 245.315 96.4293 245.315 98.4828C245.315 100.536 243.665 102.186 241.612 102.186C239.558 102.186 237.908 100.536 237.908 98.4828C237.908 96.4293 239.592 94.7797 241.612 94.7797ZM241.612 93.0965C238.649 93.0965 236.225 95.5204 236.225 98.4828C236.225 101.445 238.649 103.869 241.612 103.869C244.574 103.869 246.998 101.445 246.998 98.4828C246.998 95.5204 244.608 93.0965 241.612 93.0965Z" fill="#FCF0E2"/>
<path d="M226.025 115.719C223.534 115.719 221.48 113.666 221.48 111.174C221.48 108.683 223.534 106.63 226.025 106.63C228.516 106.63 230.57 108.683 230.57 111.174C230.57 113.666 228.516 115.719 226.025 115.719Z" fill="#F3D3C5"/>
<path d="M226.025 107.438C228.078 107.438 229.728 109.087 229.728 111.141C229.728 113.194 228.078 114.844 226.025 114.844C223.971 114.844 222.322 113.194 222.322 111.141C222.322 109.121 223.971 107.438 226.025 107.438ZM226.025 105.754C223.062 105.754 220.638 108.178 220.638 111.141C220.638 114.103 223.062 116.527 226.025 116.527C228.987 116.527 231.411 114.103 231.411 111.141C231.411 108.178 228.987 105.754 226.025 105.754Z" fill="#FCF0E2"/>
<path d="M218.147 84.5793C215.656 84.5793 213.603 82.5258 213.603 80.0346C213.603 77.5434 215.656 75.4899 218.147 75.4899C220.638 75.4899 222.692 77.5434 222.692 80.0346C222.692 82.5258 220.672 84.5793 218.147 84.5793Z" fill="#F3D3C5"/>
<path d="M218.147 76.3315C220.201 76.3315 221.85 77.9811 221.85 80.0346C221.85 82.0882 220.201 83.7377 218.147 83.7377C216.094 83.7377 214.444 82.0882 214.444 80.0346C214.444 77.9811 216.127 76.3315 218.147 76.3315ZM218.147 74.6483C215.185 74.6483 212.761 77.0721 212.761 80.0346C212.761 82.9971 215.185 85.421 218.147 85.421C221.11 85.421 223.534 82.9971 223.534 80.0346C223.534 77.0721 221.143 74.6483 218.147 74.6483Z" fill="#FCF0E2"/>
<path d="M206.903 97.6412C204.412 97.6412 202.359 95.5877 202.359 93.0965C202.359 90.6053 204.412 88.5518 206.903 88.5518C209.394 88.5518 211.448 90.6053 211.448 93.0965C211.448 95.5877 209.394 97.6412 206.903 97.6412Z" fill="#F3D3C5"/>
<path d="M206.903 89.3597C208.957 89.3597 210.606 91.0093 210.606 93.0628C210.606 95.1164 208.957 96.766 206.903 96.766C204.85 96.766 203.2 95.1164 203.2 93.0628C203.2 91.0093 204.85 89.3597 206.903 89.3597ZM206.903 87.6765C203.941 87.6765 201.517 90.1003 201.517 93.0628C201.517 96.0253 203.941 98.4492 206.903 98.4492C209.866 98.4492 212.29 96.0253 212.29 93.0628C212.29 90.1003 209.866 87.6765 206.903 87.6765Z" fill="#FCF0E2"/>
<path d="M195.424 81.5495C192.932 81.5495 190.879 79.496 190.879 77.0048C190.879 74.5136 192.932 72.4601 195.424 72.4601C197.915 72.4601 199.968 74.5136 199.968 77.0048C199.968 79.496 197.915 81.5495 195.424 81.5495Z" fill="#F3D3C5"/>
<path d="M195.424 73.3017C197.477 73.3017 199.127 74.9512 199.127 77.0048C199.127 79.0583 197.477 80.7079 195.424 80.7079C193.37 80.7079 191.721 79.0583 191.721 77.0048C191.721 74.9512 193.37 73.3017 195.424 73.3017ZM195.424 71.6184C192.461 71.6184 190.037 74.0423 190.037 77.0048C190.037 79.9673 192.461 82.3911 195.424 82.3911C198.386 82.3911 200.81 79.9673 200.81 77.0048C200.81 74.0423 198.386 71.6184 195.424 71.6184Z" fill="#FCF0E2"/>
<path d="M164.317 68.1846C161.826 68.1846 159.773 66.1311 159.773 63.6399C159.773 61.1487 161.826 59.0952 164.317 59.0952C166.809 59.0952 168.862 61.1487 168.862 63.6399C168.862 66.1311 166.842 68.1846 164.317 68.1846Z" fill="#F3D3C5"/>
<path d="M164.317 59.9368C166.371 59.9368 168.021 61.5863 168.021 63.6399C168.021 65.6934 166.371 67.343 164.317 67.343C162.264 67.343 160.614 65.6934 160.614 63.6399C160.614 61.5863 162.298 59.9368 164.317 59.9368ZM164.317 58.2535C161.355 58.2535 158.931 60.6774 158.931 63.6399C158.931 66.6024 161.355 69.0262 164.317 69.0262C167.28 69.0262 169.704 66.6024 169.704 63.6399C169.704 60.6774 167.314 58.2535 164.317 58.2535Z" fill="#FCF0E2"/>
<path d="M177.211 88.0131C174.72 88.0131 172.666 85.9596 172.666 83.4684C172.666 80.9772 174.72 78.9237 177.211 78.9237C179.702 78.9237 181.756 80.9772 181.756 83.4684C181.756 85.9596 179.702 88.0131 177.211 88.0131Z" fill="#F3D3C5"/>
<path d="M177.211 79.7653C179.265 79.7653 180.914 81.4149 180.914 83.4684C180.914 85.522 179.265 87.1715 177.211 87.1715C175.157 87.1715 173.508 85.522 173.508 83.4684C173.508 81.4149 175.157 79.7653 177.211 79.7653ZM177.211 78.0821C174.249 78.0821 171.825 80.5059 171.825 83.4684C171.825 86.4309 174.249 88.8548 177.211 88.8548C180.174 88.8548 182.597 86.4309 182.597 83.4684C182.597 80.5059 180.174 78.0821 177.211 78.0821Z" fill="#FCF0E2"/>
<path d="M195.424 110.333C192.932 110.333 190.879 108.279 190.879 105.788C190.879 103.297 192.932 101.243 195.424 101.243C197.915 101.243 199.968 103.297 199.968 105.788C199.968 108.279 197.915 110.333 195.424 110.333Z" fill="#F3D3C5"/>
<path d="M195.424 102.051C197.477 102.051 199.127 103.701 199.127 105.754C199.127 107.808 197.477 109.458 195.424 109.458C193.37 109.458 191.721 107.808 191.721 105.754C191.721 103.735 193.37 102.051 195.424 102.051ZM195.424 100.368C192.461 100.368 190.037 102.792 190.037 105.754C190.037 108.717 192.461 111.141 195.424 111.141C198.386 111.141 200.81 108.717 200.81 105.754C200.81 102.792 198.386 100.368 195.424 100.368Z" fill="#FCF0E2"/>
<path d="M231.411 70.7768C228.92 70.7768 226.866 68.7232 226.866 66.2321C226.866 63.7409 228.92 61.6873 231.411 61.6873C233.902 61.6873 235.956 63.7409 235.956 66.2321C235.956 68.7232 233.902 70.7768 231.411 70.7768Z" fill="#F3D3C5"/>
<path d="M231.411 62.5289C233.465 62.5289 235.114 64.1785 235.114 66.2321C235.114 68.2856 233.465 69.9352 231.411 69.9352C229.358 69.9352 227.708 68.2856 227.708 66.2321C227.708 64.1785 229.358 62.5289 231.411 62.5289ZM231.411 60.8457C228.449 60.8457 226.025 63.2696 226.025 66.2321C226.025 69.1946 228.449 71.6184 231.411 71.6184C234.374 71.6184 236.798 69.1946 236.798 66.2321C236.798 63.2696 234.374 60.8457 231.411 60.8457Z" fill="#FCF0E2"/>
<path d="M255.01 122.418C253.933 122.418 252.889 122.048 252.081 121.341C250.162 119.725 249.927 116.83 251.543 114.945C252.418 113.935 253.664 113.329 255.01 113.329C256.087 113.329 257.131 113.699 257.939 114.406C259.858 116.022 260.094 118.917 258.444 120.803C257.602 121.846 256.323 122.418 255.01 122.418Z" fill="#F3D3C5"/>
<path d="M255.01 114.171C255.885 114.171 256.727 114.474 257.4 115.046C258.141 115.686 258.612 116.594 258.68 117.571C258.747 118.547 258.444 119.523 257.804 120.264C257.097 121.106 256.054 121.577 254.977 121.577C254.101 121.577 253.26 121.274 252.586 120.702C251.038 119.389 250.836 117.032 252.149 115.484C252.889 114.642 253.899 114.171 255.01 114.171ZM255.01 112.487C253.495 112.487 251.98 113.127 250.903 114.373C248.984 116.628 249.253 120.028 251.509 121.981C252.519 122.856 253.765 123.26 255.01 123.26C256.525 123.26 258.04 122.62 259.117 121.375C261.036 119.119 260.767 115.719 258.511 113.767C257.468 112.891 256.222 112.487 255.01 112.487Z" fill="#FCF0E2"/>
<path d="M148.158 121.106C145.667 121.106 143.614 119.052 143.614 116.561C143.614 114.07 145.667 112.016 148.158 112.016C150.65 112.016 152.703 114.07 152.703 116.561C152.703 119.052 150.65 121.106 148.158 121.106Z" fill="#F3D3C5"/>
<path d="M148.158 112.858C150.212 112.858 151.862 114.507 151.862 116.561C151.862 118.614 150.212 120.264 148.158 120.264C146.105 120.264 144.455 118.614 144.455 116.561C144.455 114.507 146.105 112.858 148.158 112.858ZM148.158 111.174C145.196 111.174 142.772 113.598 142.772 116.561C142.772 119.523 145.196 121.947 148.158 121.947C151.121 121.947 153.545 119.523 153.545 116.561C153.545 113.598 151.121 111.174 148.158 111.174Z" fill="#FCF0E2"/>
<path d="M326.413 58.0179C321.397 58.4219 316.381 58.8932 311.365 59.4655C310.49 59.5665 309.547 59.7011 308.874 60.2398C307.325 61.4854 308.032 64.1785 309.715 65.2558C311.365 66.3331 313.519 66.2658 315.506 66.1311C318.232 65.9628 320.926 65.8281 323.653 65.6598C317.997 67.2757 312.341 68.8916 306.719 70.5075C306.416 70.6085 306.046 70.7095 305.878 71.0125C305.709 71.2818 305.777 71.6184 305.844 71.9551C306.147 73.4027 306.585 74.9849 307.83 75.7592C308.638 76.2642 309.648 76.2978 310.591 76.3315C315.169 76.4662 319.747 76.4325 324.292 76.2642C316.886 79.1257 309.715 82.5258 302.814 86.3972C302.511 87.5755 303.42 88.8211 304.531 89.3261C305.642 89.8311 306.921 89.7637 308.167 89.6964C312.711 89.3934 317.256 88.8211 321.734 87.9458C322.239 87.8448 322.777 87.7438 323.215 87.4072C323.652 87.1042 323.922 86.6329 324.157 86.1616C325.672 83.0644 333.146 57.4793 326.413 58.0179Z" fill="#FCF6B7"/>
<path d="M198.79 68.3866C198.756 64.9528 198.723 59.1962 193.909 57.412C193.134 57.109 192.225 57.0416 191.249 57.1763C190.34 57.2773 189.6 57.5466 189.027 57.9506C188.455 58.3546 188.017 58.8932 187.782 59.4992L189.936 59.6002C189.97 59.5665 190.037 59.5328 190.071 59.4655C190.408 59.2298 190.879 59.0952 191.485 59.0279C192.192 58.9269 192.798 58.9942 193.269 59.1625C196.602 60.4081 196.905 64.2459 196.939 68.3866C197.04 81.2129 197.107 95.7224 191.653 107.505C189.095 112.992 185.089 117.604 181.183 122.082C178.49 125.145 175.73 128.31 173.373 131.811C169.367 137.803 167.078 143.796 166.539 149.586L168.391 149.754C168.896 144.267 171.084 138.578 174.922 132.821C177.177 129.454 179.904 126.324 182.564 123.294C186.536 118.749 190.677 114.036 193.336 108.279C198.958 96.1264 198.857 81.3812 198.79 68.3866Z" fill="#E16162"/>
<path d="M246.931 70.4402C246.19 69.0936 244.843 68.1173 243.362 67.8817C242.218 67.6797 241.073 67.9153 240.13 68.4876L242.958 69.6996C242.992 69.6996 243.026 69.6996 243.059 69.6996C244.002 69.8679 244.843 70.4739 245.315 71.3155C248.446 77.0721 246.863 83.6704 245.315 90.0667C245.079 90.9757 244.877 91.9183 244.675 92.7935C242.622 101.984 240.4 109.458 237.74 116.325C233.061 128.377 227.304 140.193 217.07 144.94C214.613 146.085 211.987 146.96 209.462 147.835C205.052 149.35 200.473 150.899 196.467 153.794C195.323 154.636 193.74 155.982 193.404 157.901L195.255 158.238C195.424 157.261 196.131 156.353 197.578 155.309C201.349 152.548 205.59 151.134 210.068 149.586C212.66 148.711 215.319 147.802 217.844 146.623C228.684 141.607 234.643 129.421 239.457 116.998C242.15 110.03 244.406 102.455 246.493 93.1975C246.695 92.2886 246.897 91.4133 247.133 90.4707C248.681 84.0744 250.432 76.8028 246.931 70.4402Z" fill="#E16162"/>
<path d="M119.106 237.316C120.486 243.712 121.833 250.344 123.347 258.39" stroke="#F58A6C" stroke-width="1.68324" stroke-miterlimit="10"/>
<path d="M111.497 242.467C112.81 249.873 114.09 257.313 115.403 264.719" stroke="#E16162" stroke-width="1.68324" stroke-miterlimit="10"/>
<path d="M105.707 241.592C106.784 249.031 107.929 257.044 108.838 263.339" stroke="#E16162" stroke-width="1.68324" stroke-miterlimit="10"/>
<path d="M99.5802 239.74C100.523 246.305 101.6 252.869 102.812 259.4" stroke="#E16162" stroke-width="1.68324" stroke-miterlimit="10"/>
<path d="M198.521 36.5398C198.857 36.4052 199.194 36.3378 199.564 36.3378C199.733 36.3378 199.867 36.3378 200.002 36.4388C200.238 36.6071 200.271 36.9438 200.271 37.2468C200.137 38.93 199.093 40.5123 197.612 41.3202C196.434 41.9598 193.707 39.8053 194.414 38.4587C194.548 38.1557 194.885 37.9874 195.222 37.9537C195.356 37.9537 195.491 37.9537 195.592 37.9537C196.198 38.0547 196.838 37.8864 197.242 37.4151C197.578 37.0448 198.016 36.7418 198.521 36.5398Z" fill="#E16162"/>
</svg>
